<svg width="600" height="600" viewBox="0 0 600 600" xmlns="http://www.w3.org/2000/svg"><g stroke="#5ca8ff" stroke-opacity="0.25" stroke-width="1.2"><g transform="translate(300,300)"><line x1="0" y1="0" x2="0" y2="-260" transform="rotate(0)"/><line x1="0" y1="0" x2="0" y2="-260" transform="rotate(15)"/><line x1="0" y1="0" x2="0" y2="-260" transform="rotate(30)"/><line x1="0" y1="0" x2="0" y2="-260" transform="rotate(45)"/><line x1="0" y1="0" x2="0" y2="-260" transform="rotate(60)"/><line x1="0" y1="0" x2="0" y2="-260" transform="rotate(75)"/><line x1="0" y1="0" x2="0" y2="-260" transform="rotate(90)"/><line x1="0" y1="0" x2="0" y2="-260" transform="rotate(105)"/><line x1="0" y1="0" x2="0" y2="-260" transform="rotate(120)"/><line x1="0" y1="0" x2="0" y2="-260" transform="rotate(135)"/><line x1="0" y1="0" x2="0" y2="-260" transform="rotate(150)"/><line x1="0" y1="0" x2="0" y2="-260" transform="rotate(165)"/><line x1="0" y1="0" x2="0" y2="-260" transform="rotate(180)"/><line x1="0" y1="0" x2="0" y2="-260" transform="rotate(195)"/><line x1="0" y1="0" x2="0" y2="-260" transform="rotate(210)"/><line x1="0" y1="0" x2="0" y2="-260" transform="rotate(225)"/><line x1="0" y1="0" x2="0" y2="-260" transform="rotate(240)"/><line x1="0" y1="0" x2="0" y2="-260" transform="rotate(255)"/><line x1="0" y1="0" x2="0" y2="-260" transform="rotate(270)"/><line x1="0" y1="0" x2="0" y2="-260" transform="rotate(285)"/><line x1="0" y1="0" x2="0" y2="-260" transform="rotate(300)"/><line x1="0" y1="0" x2="0" y2="-260" transform="rotate(315)"/><line x1="0" y1="0" x2="0" y2="-260" transform="rotate(330)"/><line x1="0" y1="0" x2="0" y2="-260" transform="rotate(345)"/></g></g></svg>